<svg width="48" height="48" viewBox="0 0 48 48" fill="none" xmlns="http://www.w3.org/2000/svg">
<g clip-path="url(#clip0_449_948)">
<path d="M18.2812 22.5938C19.0566 22.5938 19.6875 23.2247 19.6875 24C19.6875 24.7753 19.0566 25.4062 18.2812 25.4062C17.5059 25.4062 16.875 24.7753 16.875 24C16.875 23.2247 17.5059 22.5938 18.2812 22.5938Z" fill="white"/>
<path d="M19.6875 17.1094V20.0231C19.2478 19.8666 18.7744 19.7812 18.2812 19.7812C15.9553 19.7812 14.0625 21.6741 14.0625 24C14.0625 26.3259 15.9553 28.2188 18.2812 28.2188C18.7744 28.2188 19.2478 28.1334 19.6875 27.9769V30.8906C19.2272 30.9844 18.7566 31.0312 18.2812 31.0312C14.4047 31.0312 11.25 27.8766 11.25 24C11.25 20.1234 14.4047 16.9688 18.2812 16.9688C18.7566 16.9688 19.2272 17.0156 19.6875 17.1094Z" fill="white"/>
<path d="M8.4375 24C8.4375 29.4281 12.8531 33.8438 18.2812 33.8438C18.7547 33.8438 19.2244 33.8109 19.6875 33.7434V42.2812H15.4688C14.6925 42.2812 14.0625 41.6512 14.0625 40.875V38.8838C12.9122 38.5566 11.8031 38.0934 10.7466 37.5L9.33187 38.9156C8.7825 39.465 7.89281 39.465 7.34344 38.9156L3.36563 34.9378C2.81606 34.3883 2.81822 33.4968 3.36563 32.9494L4.78125 31.5337C4.18687 30.4781 3.72469 29.3691 3.3975 28.2188H1.40625C0.63 28.2188 0 27.5888 0 26.8125V21.1875C0 20.4113 0.63 19.7812 1.40625 19.7812H3.3975C3.72469 18.6309 4.18687 17.5219 4.78125 16.4653L3.36563 15.0506C2.81822 14.5032 2.81606 13.6118 3.36563 13.0622L7.34344 9.08438C7.89281 8.535 8.7825 8.535 9.33187 9.08438L10.7475 10.5C11.8031 9.90562 12.9122 9.44344 14.0625 9.11625V7.125C14.0625 6.34875 14.6925 5.71875 15.4688 5.71875H19.6875V14.2566C19.2244 14.1891 18.7547 14.1562 18.2812 14.1562C12.8531 14.1562 8.4375 18.5719 8.4375 24Z" fill="white"/>
<path d="M39.5625 6.54187V14.1562H47.1769L39.5625 6.54187ZM26.7188 14.1562H32.5312C33.3075 14.1562 33.9375 14.7863 33.9375 15.5625C33.9375 16.3387 33.3075 16.9688 32.5312 16.9688H26.7188C25.9425 16.9688 25.3125 16.3387 25.3125 15.5625C25.3125 14.7863 25.9425 14.1562 26.7188 14.1562ZM40.9688 33.8438H26.7188C25.9425 33.8438 25.3125 33.2138 25.3125 32.4375C25.3125 31.6612 25.9425 31.0312 26.7188 31.0312H40.9688C41.745 31.0312 42.375 31.6612 42.375 32.4375C42.375 33.2138 41.745 33.8438 40.9688 33.8438ZM40.9688 28.2188H26.7188C25.9425 28.2188 25.3125 27.5888 25.3125 26.8125C25.3125 26.0362 25.9425 25.4062 26.7188 25.4062H40.9688C41.745 25.4062 42.375 26.0362 42.375 26.8125C42.375 27.5888 41.745 28.2188 40.9688 28.2188ZM40.9688 22.5938H26.7188C25.9425 22.5938 25.3125 21.9638 25.3125 21.1875C25.3125 20.4113 25.9425 19.7812 26.7188 19.7812H40.9688C41.745 19.7812 42.375 20.4113 42.375 21.1875C42.375 21.9638 41.745 22.5938 40.9688 22.5938ZM38.1562 16.9688C37.38 16.9688 36.75 16.3387 36.75 15.5625V5.71875H22.5V42.2812H46.5938C47.37 42.2812 48 41.6512 48 40.875V16.9688H38.1562Z" fill="white"/>
</g>
<defs>
<clipPath id="clip0_449_948">
<rect width="48" height="48" fill="white"/>
</clipPath>
</defs>
</svg>
