<svg width="48" height="48" viewBox="0 0 48 48" fill="none" xmlns="http://www.w3.org/2000/svg">
<path d="M44.3207 40.7842C44.3207 40.7842 38.9931 31.6278 38.0375 29.9856C39.1248 29.6539 40.283 29.361 40.7642 28.5301C41.5663 27.1455 40.1386 24.8742 40.5135 23.3901C40.8997 21.8627 43.1793 20.541 43.1793 18.9884C43.1793 17.4758 40.8225 15.7087 40.4361 14.1902C40.0586 12.7064 41.482 10.4326 40.6773 9.04975C39.8727 7.66672 37.1927 7.78035 36.0894 6.71876C34.9543 5.62629 34.9578 2.95337 33.5886 2.22125C32.2139 1.48641 29.9797 2.97153 28.4533 2.61974C26.9443 2.27197 25.5962 0 24.02 0C22.4205 0 19.8764 2.57719 19.4774 2.66994C17.9518 3.02458 15.7147 1.5431 14.3414 2.28105C12.9736 3.01563 12.982 5.68881 11.8489 6.78309C10.7475 7.84663 8.06733 7.73793 7.26517 9.12252C6.46313 10.5068 7.89078 12.7776 7.51604 14.2625C7.14025 15.7511 4.78124 17.2595 4.78124 18.981C4.78124 20.5337 7.06657 21.8513 7.45507 23.3779C7.83267 24.8617 6.4093 27.1352 7.21393 28.5186C7.65198 29.2716 8.64586 29.5808 9.63844 29.8779C9.75428 29.9126 9.97337 30.0422 9.82498 30.2584C9.14591 31.4305 3.68034 40.8633 3.68034 40.8633C3.24553 41.6136 3.59862 42.2567 4.46473 42.2932L8.70423 42.47C9.57034 42.5064 10.6568 43.1358 11.1191 43.8691L13.3814 47.4588C13.8437 48.1921 14.5772 48.1784 15.0119 47.4282C15.0119 47.4282 21.3417 36.5002 21.3442 36.4971C21.4712 36.3487 21.5989 36.3792 21.66 36.431C22.3525 37.0207 23.318 37.609 24.1238 37.609C24.914 37.609 25.6458 37.0552 26.3696 36.4377C26.4285 36.3875 26.5718 36.2846 26.6766 36.4981C26.6783 36.5015 33.001 47.3697 33.001 47.3697C33.4369 48.1189 34.1705 48.1317 34.6314 47.3975L36.8873 43.8034C37.3483 43.0696 38.4336 42.4378 39.2998 42.4L43.5389 42.2153C44.4046 42.1773 44.7565 41.5333 44.3207 40.7842ZM31.0264 30.9542C26.339 33.6812 20.7125 33.389 16.4151 30.6783C10.118 26.6448 8.04605 18.3009 11.8315 11.7673C15.6602 5.15828 24.0766 2.82625 30.7451 6.45816C30.7802 6.47722 30.8148 6.49694 30.8496 6.5164C30.899 6.54377 30.9483 6.57153 30.9974 6.59955C33.0547 7.78567 34.8387 9.50712 36.1161 11.7028C40.0203 18.4138 37.7372 27.05 31.0264 30.9542Z" fill="white"/>
<path d="M29.9537 8.57356C29.9342 8.56227 29.9145 8.55177 29.895 8.54061C26.3328 6.47891 21.7925 6.32818 17.9873 8.54204C12.3405 11.8272 10.419 19.0938 13.7042 24.7404C14.7066 26.4636 16.0803 27.8391 17.6652 28.8262C17.7999 28.9116 17.9363 28.9955 18.0756 29.0762C23.7285 32.3511 30.9911 30.4165 34.2659 24.7639C37.5406 19.111 35.6065 11.8485 29.9537 8.57356ZM31.3678 17.8146L29.3885 19.7439C28.7755 20.3414 28.3923 21.5207 28.5372 22.3645L29.0044 25.0887C29.1492 25.9325 28.6477 26.2969 27.8899 25.8985L25.4433 24.6123C24.6855 24.2139 23.4456 24.2139 22.6878 24.6123L20.2413 25.8985C19.4835 26.2969 18.9819 25.9325 19.1267 25.0887L19.5939 22.3645C19.7387 21.5207 19.3555 20.3414 18.7425 19.7439L16.7633 17.8146C16.1501 17.2172 16.3418 16.6275 17.189 16.5042L19.9242 16.1068C20.7713 15.9837 21.7746 15.2548 22.1535 14.4872L23.3767 12.0087C23.7556 11.241 24.3756 11.241 24.7544 12.0087L25.9777 14.4872C26.3566 15.2548 27.3597 15.9837 28.207 16.1068L30.9422 16.5042C31.7893 16.6275 31.9809 17.2172 31.3678 17.8146Z" fill="white"/>
</svg>
