<svg width="48" height="48" viewBox="0 0 48 48" fill="none" xmlns="http://www.w3.org/2000/svg">
<path fill-rule="evenodd" clip-rule="evenodd" d="M20.3478 1.67059L21.6248 5.03387C21.6631 5.13493 21.7526 5.1999 21.8606 5.20515L25.4538 5.38028C25.6982 5.39218 25.7983 5.70006 25.6076 5.85334L22.8035 8.10709C22.7192 8.17478 22.6851 8.27987 22.7134 8.38421L23.6573 11.8557C23.7215 12.0917 23.4597 12.2821 23.2549 12.148L20.2449 10.1777C20.1544 10.1184 20.044 10.1184 19.9535 10.1777L16.9436 12.148C16.7388 12.2821 16.477 12.0917 16.5412 11.8557L17.485 8.38412C17.5133 8.27978 17.4793 8.17468 17.395 8.107L14.5909 5.85325C14.4002 5.69997 14.5003 5.39209 14.7447 5.38018L18.3379 5.20506C18.4459 5.19981 18.5353 5.13484 18.5737 5.03378L19.8507 1.6705C19.9368 1.44315 20.2616 1.44315 20.3478 1.67059ZM37.7211 30.155C42.2346 30.155 45.8936 33.814 45.8936 38.3275C45.8936 42.841 42.2346 46.5 37.7211 46.5C33.2076 46.5 29.5486 42.841 29.5486 38.3275C29.5486 33.814 33.2076 30.155 37.7211 30.155ZM36.6477 39.0483L34.8216 37.2223C34.3484 36.749 33.5806 36.749 33.1073 37.2223C32.6341 37.6955 32.6341 38.4632 33.1073 38.9365L35.7931 41.6223C36.2664 42.0956 37.0341 42.0956 37.5074 41.6223C39.1262 40.0035 40.7268 38.3663 42.3382 36.7399C42.8081 36.2657 42.8066 35.5005 42.333 35.0295C41.8592 34.5584 41.0919 34.5597 40.6215 35.0348L36.6477 39.0483ZM6.64946 42.1134L28.818 42.1133C28.3229 40.9505 28.0487 39.671 28.0487 38.3275C28.0487 36.2841 28.683 34.3892 29.7645 32.8276C27.1964 30.5379 23.8107 29.1461 20.0994 29.1461C12.9554 29.1461 7.01602 34.3019 5.79783 41.0954C5.70202 41.629 6.1073 42.1134 6.64946 42.1134ZM20.0994 13.5149C24.1569 13.5149 27.4462 16.8042 27.4462 20.8617C27.4462 24.9192 24.1569 28.2085 20.0994 28.2085C16.0419 28.2085 12.7526 24.9192 12.7526 20.8617C12.7525 16.8042 16.0418 13.5149 20.0994 13.5149ZM32.7256 6.43121C32.6392 6.20378 32.3145 6.20378 32.2281 6.43121L30.9511 9.7945C30.9128 9.89565 30.8234 9.96053 30.7154 9.96578L27.1221 10.1409C26.8777 10.1528 26.7777 10.4607 26.9684 10.614L29.7724 12.8677C29.8567 12.9355 29.8908 13.0405 29.8624 13.1448L28.9186 16.6164C28.8544 16.8526 29.1163 17.0428 29.321 16.9087L32.331 14.9384C32.4214 14.8791 32.5319 14.8791 32.6223 14.9384L35.6324 16.9087C35.8371 17.0428 36.099 16.8525 36.0347 16.6164L35.0909 13.1449C35.0625 13.0406 35.0966 12.9356 35.1809 12.8678L37.9849 10.6141C38.1756 10.4608 38.0756 10.1529 37.8312 10.141L34.2379 9.96587C34.1299 9.96062 34.0406 9.89565 34.0021 9.79459L32.7256 6.43121ZM7.97011 6.43121C7.88377 6.20378 7.55902 6.20378 7.47277 6.43121L6.1958 9.7945C6.15746 9.89565 6.06802 9.96053 5.96002 9.96578L2.36677 10.1409C2.12236 10.1528 2.02233 10.4607 2.21302 10.614L5.01708 12.8677C5.10136 12.9355 5.13549 13.0405 5.10708 13.1448L4.1633 16.6164C4.09908 16.8526 4.36093 17.0428 4.56568 16.9087L7.57561 14.9384C7.66608 14.8791 7.77652 14.8791 7.86699 14.9384L10.877 16.9087C11.0818 17.0428 11.3436 16.8525 11.2794 16.6164L10.3356 13.1449C10.3072 13.0406 10.3413 12.9356 10.4256 12.8678L13.2297 10.6141C13.4204 10.4608 13.3203 10.1529 13.0759 10.141L9.48268 9.96587C9.37468 9.96062 9.28533 9.89565 9.2469 9.79459L7.97011 6.43121Z" fill="white"/>
</svg>
