<svg width="80" height="80" viewBox="0 0 80 80" fill="none" xmlns="http://www.w3.org/2000/svg">
<rect width="80" height="80" fill="#3F5AF3"/>
<path d="M44.8537 42.4849C43.3414 44.0716 40.8905 44.0716 39.3823 42.4849C37.87 40.8981 37.87 38.3266 39.3823 36.7441C40.8946 35.1617 43.3455 35.1574 44.8537 36.7441C46.366 38.3309 46.366 40.9024 44.8537 42.4849Z" fill="white"/>
<path d="M41.3444 41.3026H24.5449V37.9785H41.3444C41.7665 37.9785 42.1681 38.1548 42.4632 38.4644C43.0821 39.1138 43.0821 40.1673 42.4632 40.8166C42.1681 41.1305 41.7624 41.3026 41.3444 41.3026Z" fill="white"/>
<path d="M49.385 45.968C47.2989 48.6857 44.1882 49.8639 41.2127 49.5027C40.434 49.4124 39.6635 49.2103 38.9217 48.9093C36.6512 47.9762 34.0692 48.5868 32.3438 50.3972C33.77 51.8936 35.4258 53.0031 37.2004 53.7126C42.5201 55.8713 48.8481 54.4952 52.8891 49.5758C57.3072 44.1963 57.3851 36.0905 53.0613 30.6335C48.7129 25.1465 41.5693 23.8823 35.9381 26.8709C34.643 27.5546 33.4298 28.4663 32.3478 29.6015C34.0692 31.4076 36.6512 32.0268 38.9176 31.0937C42.4914 29.6187 46.7743 30.6034 49.4055 34.0522C52.0367 37.5009 52.0326 42.5278 49.3891 45.968H49.385Z" fill="white"/>
<path d="M52.9001 30.4313C48.859 25.5076 42.5351 24.1315 37.2072 26.2902L29.2071 17.8962C28.8341 18.1327 28.4652 18.3865 28.1046 18.6531L28.0677 18.6789C26.1824 20.0592 25.9447 22.8887 27.5718 24.5916L32.3465 29.6013C34.0678 31.4074 36.6498 32.0266 38.9162 31.0935C42.4901 29.6185 46.7729 30.6033 49.4041 34.052C51.8509 37.2599 51.8427 42.7685 49.3877 45.9678C47.3016 48.6855 44.1909 49.8638 41.2154 49.5025C40.4367 49.4122 39.6662 49.2101 38.9244 48.9091C36.6539 47.976 34.0719 48.5866 32.3506 50.397L27.621 55.3594C25.9775 57.0837 26.207 59.9606 28.1169 61.3538C28.4775 61.6161 28.8382 61.8655 29.2071 62.1064L37.2072 53.7124C42.5269 55.8711 48.8549 54.495 52.9001 49.5756C57.3796 44.123 57.3796 35.8882 52.9041 30.4313H52.9001Z" fill="white"/>
<g style="mix-blend-mode:multiply">
<path d="M52.9001 30.4313C48.859 25.5076 42.5351 24.1315 37.2072 26.2902L29.2071 17.8962C28.8341 18.1327 28.4652 18.3865 28.1046 18.6531L28.0677 18.6789C26.1824 20.0592 25.9447 22.8887 27.5718 24.5916L32.3465 29.6013C34.0678 31.4074 36.6498 32.0266 38.9162 31.0935C42.4901 29.6185 46.7729 30.6033 49.4041 34.052C51.8509 37.2599 51.8427 42.7685 49.3877 45.9678C47.3016 48.6855 44.1909 49.8638 41.2154 49.5025C40.4367 49.4122 39.6662 49.2101 38.9244 48.9091C36.6539 47.976 34.0719 48.5866 32.3506 50.397L27.621 55.3594C25.9775 57.0837 26.207 59.9606 28.1169 61.3538C28.4775 61.6161 28.8382 61.8655 29.2071 62.1064L37.2072 53.7124C42.5269 55.8711 48.8549 54.495 52.9001 49.5756C57.3796 44.123 57.3796 35.8882 52.9041 30.4313H52.9001Z" fill="white"/>
</g>
<path d="M60.7543 22.6952C52.5041 13.0155 39.1392 11.4201 29.2046 17.8962C28.8316 18.1327 28.4628 18.3864 28.1021 18.653C28.0898 18.6616 28.0775 18.6702 28.0652 18.6788C26.1759 20.0635 25.9832 22.9274 27.6103 24.6389L29.1882 26.2944C30.2538 25.1764 31.4218 24.2175 32.6555 23.4348C33.0366 23.1897 33.426 22.9618 33.8276 22.7511C41.1064 18.825 50.3648 20.3215 56.1558 27.2362C62.2256 34.4863 62.2215 45.5377 56.1394 52.7835C50.3484 59.6853 41.1023 61.1775 33.8194 57.2557C32.1473 56.357 30.5858 55.1744 29.1841 53.7038L27.6062 55.3593C25.9627 57.0837 26.1923 59.9605 28.1021 61.3538C28.4628 61.6161 28.8234 61.8655 29.1923 62.1063C39.1433 68.591 52.5328 66.9741 60.7748 57.2686C69.0864 47.4814 69.0741 32.4695 60.7461 22.6995L60.7543 22.6952Z" fill="white"/>
<path d="M30.6068 39.6079H19.4263L13 31.3301H24.1805L30.6068 39.6079Z" fill="white"/>
<path d="M30.6068 39.6079H19.4263L13 47.89H24.1805L30.6068 39.6079Z" fill="white"/>
</svg>
