<svg width="58" height="64" viewBox="0 0 58 64" fill="none" xmlns="http://www.w3.org/2000/svg">
<path d="M36.9395 25.6979H16.4181V29.9389H36.9395V25.6979ZM24.6287 17.2159H16.4181V21.4569H24.6277L24.6287 17.2159ZM49.2585 15.3959V8.73491H40.2262L28.734 0.253906L17.2408 8.73491H8.20856V15.3959L0 21.4569V63.8629H57.4681V21.4569L49.2585 15.3959ZM12.3139 12.9759H45.1532V29.1969L28.734 43.1899L12.3139 29.1969V12.9759ZM4.10326 29.9379L20.2707 42.6379L4.10326 55.3819V29.9379ZM8.20856 59.6259L24.4998 45.9559L28.733 49.2859L32.958 45.9649L49.2585 59.6259H8.20856ZM53.3638 55.3849L37.1759 42.6559L53.3638 29.9379V55.3819V55.3849Z" fill="#02050A"/>
</svg>
