<svg width="67" height="49" viewBox="0 0 67 49" fill="none" xmlns="http://www.w3.org/2000/svg">
<path d="M29.6346 5.15789V33.5263C29.6304 37.6289 28 41.5622 25.1013 44.4632C22.2027 47.3641 18.2724 48.9957 14.1731 49C13.4896 49 12.8342 48.7283 12.3509 48.2446C11.8677 47.761 11.5962 47.105 11.5962 46.4211C11.5962 45.7371 11.8677 45.0811 12.3509 44.5975C12.8342 44.1138 13.4896 43.8421 14.1731 43.8421C16.9068 43.8421 19.5287 42.7553 21.4617 40.8207C23.3948 38.8861 24.4808 36.2622 24.4808 33.5263V30.9474H5.15385C3.78696 30.9474 2.47606 30.4039 1.50953 29.4367C0.542993 28.4694 0 27.1574 0 25.7895V5.15789C0 3.78994 0.542993 2.478 1.50953 1.51071C2.47606 0.543419 3.78696 0 5.15385 0H24.4808C25.8477 0 27.1586 0.543419 28.1251 1.51071C29.0916 2.478 29.6346 3.78994 29.6346 5.15789ZM61.8462 0H42.5192C41.1523 0 39.8414 0.543419 38.8749 1.51071C37.9084 2.478 37.3654 3.78994 37.3654 5.15789V25.7895C37.3654 27.1574 37.9084 28.4694 38.8749 29.4367C39.8414 30.4039 41.1523 30.9474 42.5192 30.9474H61.8462V33.5263C61.8462 36.2622 60.7602 38.8861 58.8271 40.8207C56.894 42.7553 54.2722 43.8421 51.5385 43.8421C50.855 43.8421 50.1996 44.1138 49.7163 44.5975C49.233 45.0811 48.9615 45.7371 48.9615 46.4211C48.9615 47.105 49.233 47.761 49.7163 48.2446C50.1996 48.7283 50.855 49 51.5385 49C55.6378 48.9957 59.568 47.3641 62.4667 44.4632C65.3654 41.5622 66.9957 37.6289 67 33.5263V5.15789C67 3.78994 66.457 2.478 65.4905 1.51071C64.5239 0.543419 63.213 0 61.8462 0Z" fill="black"/>
</svg>
