<svg width="60" height="60" viewBox="0 0 60 60" fill="none" xmlns="http://www.w3.org/2000/svg">
<g clip-path="url(#clip0_449_771)">
<path d="M31.2501 50.0002H26.25V47.5001H31.2501C31.5839 47.5001 31.8977 47.37 32.1337 47.1339C32.3702 46.8974 32.4999 46.5837 32.4999 46.2499H35C35 47.2512 34.609 48.1939 33.9013 48.9011C33.1937 49.6087 32.2515 50.0002 31.2501 50.0002Z" fill="#02050A"/>
<path d="M30.0001 55H25V52.4999H30.0001C30.3334 52.4999 30.6472 52.3702 30.8837 52.1337C31.1197 51.8977 31.2499 51.5839 31.2499 51.2501H33.75C33.75 52.2515 33.3585 53.1937 32.6513 53.9013C31.9437 54.609 31.001 55 30.0001 55Z" fill="#02050A"/>
<path d="M28.7499 60H10.0002C9.7537 60 9.51147 59.9261 9.30643 59.7902L5.8713 57.4999H0V54.9999H6.2499C6.49643 54.9999 6.73866 55.0738 6.9437 55.2102L10.3788 57.4999H28.7499C29.0837 57.4999 29.3975 57.3702 29.635 57.1328C29.87 56.8977 30.0002 56.5849 30.0002 56.2501H32.4998C32.4998 57.2525 32.1088 58.1952 31.4012 58.9023C30.6926 59.6099 29.7499 60 28.7499 60Z" fill="#02050A"/>
<path d="M32.4998 45.0001H27.5002V42.5001H32.4998C32.8336 42.5001 33.1473 42.3699 33.3839 42.1339C33.6199 41.8974 33.7501 41.5836 33.7501 41.2503C33.7501 40.9165 33.6199 40.6027 33.3839 40.3662C33.1473 40.1302 32.8336 40 32.4998 40H17.4999C17.0989 40 16.7213 39.8074 16.4862 39.4812C16.2511 39.1551 16.1877 38.735 16.3136 38.3549L18.7502 31.0474V26.2499C18.7502 25.9162 18.62 25.6024 18.384 25.3664C17.9114 24.8938 17.0889 24.8938 16.6163 25.3664C16.3798 25.6024 16.2501 25.9162 16.2501 26.2499C16.2501 26.4087 16.2201 26.5661 16.1614 26.7149L13.6614 32.9652C13.6151 33.0802 13.5536 33.1865 13.4764 33.2823L8.47626 39.5327C8.23879 39.8274 7.88021 40 7.50017 40H0V37.5H6.89983L11.4088 31.8637L13.7601 25.9863C13.8226 25.0836 14.2036 24.2439 14.8501 23.5978C16.2663 22.1801 18.7364 22.1801 20.1526 23.5978C20.8602 24.3064 21.2498 25.2486 21.2498 26.2499V31.2501C21.2498 31.3836 21.2288 31.5176 21.1864 31.6449L19.2337 37.5H32.4998C33.5012 37.5 34.4439 37.8914 35.1515 38.5986C35.8586 39.3062 36.2501 40.2489 36.2501 41.2503C36.2501 42.2512 35.8586 43.1939 35.1515 43.9015C34.4439 44.6087 33.5012 45.0001 32.4998 45.0001Z" fill="#02050A"/>
<path d="M27.5001 13.7501H25C25 12.7487 25.3901 11.8065 26.0986 11.0989C26.8063 10.3898 27.7485 10.0002 28.7498 10.0002H33.75V12.4998H28.7498C28.4161 12.4998 28.1023 12.63 27.8663 12.866C27.6298 13.1025 27.5001 13.4163 27.5001 13.7501Z" fill="#3F5AF3"/>
<path d="M28.7501 8.74997H26.25C26.25 7.74861 26.6401 6.80638 27.3486 6.09876C28.0563 5.39017 28.999 5.00012 30.0003 5.00012H35V7.50018H30.0003C29.6665 7.50018 29.3528 7.62988 29.1163 7.86639C28.8802 8.10243 28.7501 8.41618 28.7501 8.74997Z" fill="#3F5AF3"/>
<path d="M59.9998 5.00011H53.7499C53.5034 5.00011 53.2611 4.92621 53.0561 4.78983L49.621 2.50006H31.2498C30.9161 2.50006 30.6023 2.63023 30.3663 2.86627C30.1298 3.1023 30.0001 3.41606 30.0001 3.74985H27.5C27.5 2.74897 27.8901 1.80626 28.5986 1.09863C29.3063 0.390053 30.2485 0 31.2498 0H50C50.2461 0 50.4888 0.0739098 50.6934 0.209808L54.1285 2.50006H59.9998V5.00011Z" fill="#3F5AF3"/>
<path d="M42.5002 37.5C41.4988 37.5 40.5566 37.109 39.849 36.4014C39.1414 35.6938 38.7503 34.7516 38.7503 33.7502V28.7501C38.7503 28.6166 38.7728 28.4826 38.8152 28.3553L40.765 22.5002H27.5003C26.499 22.5002 25.5563 22.1101 24.8491 21.4015C24.1401 20.6939 23.75 19.7512 23.75 18.7503C23.75 17.749 24.1401 16.8063 24.8491 16.0991C25.5563 15.3901 26.499 15 27.5003 15H32.5V17.5001H27.5003C27.1665 17.5001 26.8528 17.6302 26.6163 17.8663C26.3802 18.1028 26.2501 18.4165 26.2501 18.7503C26.2501 19.0841 26.3802 19.3979 26.6163 19.6339C26.8528 19.8699 27.1665 20.0001 27.5003 20.0001H42.5002C42.9012 20.0001 43.2789 20.1928 43.5154 20.5203C43.75 20.8465 43.8139 21.2652 43.6866 21.6462L41.2504 28.9527V33.7502C41.2504 34.084 41.3801 34.3977 41.6166 34.6338C42.0901 35.1054 42.9103 35.1054 43.3838 34.6338C43.6203 34.3977 43.75 34.084 43.75 33.7502C43.75 33.5914 43.78 33.4341 43.8392 33.2862L46.3387 27.0363C46.385 26.9228 46.4475 26.8165 46.5228 26.7202L51.5229 20.4703C51.7613 20.1727 52.1204 20.0001 52.4999 20.0001H60.0001V22.5002H53.1003L48.5913 28.1364L46.2415 34.0139C46.179 34.9165 45.7975 35.7562 45.1514 36.4014C44.4438 37.11 43.5016 37.5 42.5002 37.5Z" fill="#3F5AF3"/>
<path d="M2.5 32.4996H5.00006V34.9997H2.5V32.4996Z" fill="#02050A"/>
<path d="M2.5 27.5004H5.00006V30.0004H2.5V27.5004Z" fill="#02050A"/>
<path d="M2.5 22.5H5.00006V25.0001H2.5V22.5Z" fill="#02050A"/>
<path d="M55 34.9998H57.5001V37.4998H55V34.9998Z" fill="#3F5AF3"/>
<path d="M55 30H57.5001V32.4996H55V30Z" fill="#3F5AF3"/>
<path d="M55 25.0002H57.5001V27.5003H55V25.0002Z" fill="#3F5AF3"/>
</g>
<defs>
<clipPath id="clip0_449_771">
<rect width="60" height="60" fill="white"/>
</clipPath>
</defs>
</svg>
