<svg width="60" height="60" viewBox="0 0 60 60" fill="none" xmlns="http://www.w3.org/2000/svg">
<g clip-path="url(#clip0_449_758)">
<path d="M30.0002 60C13.4587 60 0 46.5413 0 30.0003C0 29.3103 0.559807 28.75 1.24979 28.75C1.93977 28.75 2.50006 29.3103 2.50006 30.0003C2.50006 45.1637 14.8363 57.4999 30.0002 57.4999C45.1636 57.4999 57.4999 45.1637 57.4999 30.0003C57.4999 29.3103 58.0587 28.75 58.7502 28.75C59.4411 28.75 59.9999 29.3103 59.9999 30.0003C59.9999 46.5413 46.5412 60 30.0002 60Z" fill="#02050A"/>
<path d="M47.9218 52.1874C42.8158 47.6861 36.1158 45.0001 29.9984 45.0001C23.8806 45.0001 17.1806 47.6861 12.0746 52.1874L10.4219 50.3125C15.9708 45.4202 23.2893 42.5 29.9984 42.5C36.7071 42.5 44.0255 45.4202 49.5745 50.3125L47.9218 52.1874Z" fill="#02050A"/>
<path d="M30.0001 60C20.8873 60 13.75 46.8226 13.75 30.0002V26.2499C13.75 25.5599 14.3098 25.0001 14.9998 25.0001C15.6898 25.0001 16.2501 25.5599 16.2501 26.2499V30.0002C16.2501 44.9062 22.5476 57.4999 30.0001 57.4999C37.4536 57.4999 43.7497 44.9062 43.7497 30.0002V26.2499C43.7497 25.5599 44.3086 25.0001 45 25.0001C45.6909 25.0001 46.2498 25.5599 46.2498 26.2499V30.0002C46.2498 46.8226 39.1125 60 30.0001 60Z" fill="#02050A"/>
<path d="M30.0003 60.0001C29.3103 60.0001 28.75 59.4413 28.75 58.7503V35C28.75 34.3091 29.3103 33.7502 30.0003 33.7502C30.6903 33.7502 31.2501 34.3091 31.2501 35V58.7503C31.2501 59.4413 30.6903 60.0001 30.0003 60.0001Z" fill="#02050A"/>
<path d="M53.75 31.2501H1.24979C0.559807 31.2501 0 30.6903 0 30.0003C0 29.3103 0.559807 28.75 1.24979 28.75H53.75C54.4415 28.75 54.9998 29.3103 54.9998 30.0003C54.9998 30.6903 54.4415 31.2501 53.75 31.2501Z" fill="#02050A"/>
<path d="M8.13876 24.9276C7.25089 24.9276 6.38209 24.6115 5.69354 24.0273C5.16711 23.581 5.10083 22.7923 5.54858 22.2664C5.9949 21.7385 6.78216 21.6737 7.31002 22.1214C7.59231 22.3613 7.94612 22.4652 8.30613 22.4161C8.65375 22.3675 8.95463 22.181 9.15252 21.8873C10.0986 20.4949 12.056 17.8738 14.556 15.9264C14.845 15.7037 15.0009 15.3775 15.0009 14.9999V10.0002C15.0009 9.51862 15.2775 9.07993 15.7124 8.87251C19.4861 7.06863 24.5224 5.00011 30.0013 5.00011C35.4811 5.00011 40.516 7.06863 44.2897 8.87251C44.7236 9.07993 45.0011 9.51862 45.0011 10.0002V14.9999C45.0011 15.3775 45.1561 15.7037 45.4384 15.9211C47.9499 17.8752 49.9035 20.4964 50.8462 21.8849C51.045 22.1786 51.3459 22.3675 51.695 22.4152C52.0574 22.4624 52.4083 22.3589 52.6935 22.12L54.6971 20.3915C55.5574 19.6562 56.07 18.6524 56.265 17.3187C56.4023 16.3813 56.4424 14.6036 55.1611 13.226C48.8096 6.41012 39.6386 2.50006 30.0013 2.50006C20.3634 2.50006 11.1934 6.41012 4.84096 13.2275C3.56113 14.605 3.60118 16.3813 3.73851 17.3187C3.75997 17.4675 3.79239 17.6148 3.83721 17.7612C5.62249 15.4824 7.825 13.4177 10.5249 11.4837C11.0875 11.0812 11.8662 11.21 12.2686 11.7726C12.6711 12.3339 12.5409 13.1149 11.9797 13.5164C8.92984 15.7013 6.57712 18.0502 4.7885 20.7C4.57727 21.0123 4.23585 21.2135 3.85963 21.2464C3.49103 21.2865 3.11338 21.1401 2.85112 20.8673C1.97993 19.9599 1.43109 18.8575 1.26468 17.6764C0.91611 15.2998 1.536 13.114 3.01229 11.5252C9.83487 4.19998 19.6725 0 30.0013 0C40.33 0 50.1672 4.19998 56.9898 11.5223C58.4675 13.1111 59.0874 15.2988 58.736 17.6811C58.4522 19.6123 57.6421 21.1625 56.3236 22.2874L54.3162 24.0211C53.486 24.7235 52.4083 25.0373 51.3521 24.8923C50.3074 24.7488 49.3685 24.1637 48.7763 23.2887C47.3138 21.1339 45.54 19.1698 43.9073 17.8986C43.0161 17.2124 42.5011 16.1538 42.5011 14.9999V10.7927C39.0588 9.19247 34.6523 7.50017 30.0013 7.50017C25.3512 7.50017 20.9437 9.19247 17.501 10.7927V14.9999C17.501 16.1548 16.985 17.2138 16.0862 17.9038C14.465 19.1674 12.6887 21.1325 11.2225 23.2902C10.6312 24.1637 9.6923 24.7488 8.64612 24.8938C8.47732 24.9162 8.30709 24.9276 8.13876 24.9276Z" fill="#3F5AF3"/>
<path d="M56.2513 21.2498C55.8503 21.2498 55.4555 21.0576 55.2142 20.7C53.4251 18.0502 51.0728 15.6998 48.0225 13.5164C47.4613 13.1149 47.3316 12.3339 47.734 11.7726C48.1365 11.21 48.9175 11.0812 49.4788 11.4837C52.7751 13.8435 55.33 16.4013 57.2879 19.3C57.6742 19.8727 57.5225 20.6489 56.9503 21.0352C56.7353 21.1811 56.4916 21.2498 56.2513 21.2498Z" fill="#3F5AF3"/>
<path d="M23.75 22.5H26.2501V25.0001H23.75V22.5Z" fill="#02050A"/>
<path d="M28.75 22.5H31.2501V25.0001H28.75V22.5Z" fill="#02050A"/>
<path d="M33.75 22.5H36.2501V25.0001H33.75V22.5Z" fill="#02050A"/>
</g>
<defs>
<clipPath id="clip0_449_758">
<rect width="60" height="60" fill="white"/>
</clipPath>
</defs>
</svg>
