<svg width="60" height="60" viewBox="0 0 60 60" fill="none" xmlns="http://www.w3.org/2000/svg">
<g clip-path="url(#clip0_435_7171)">
<path d="M12.4894 35.1991L10.0117 34.8691C11.1919 26.0133 18.477 18.7268 27.3357 17.5457L27.6666 20.0233C19.9056 21.058 13.5231 27.4405 12.4894 35.1991Z" fill="#3F5AF3"/>
<path d="M47.5122 35.1991C46.4799 27.4405 40.096 21.058 32.3359 20.0233L32.6659 17.5457C41.5251 18.7268 48.8111 26.0133 49.9899 34.8691L47.5122 35.1991Z" fill="#3F5AF3"/>
<path d="M32.6659 57.5232L32.3359 55.0456C40.096 54.0118 46.4775 47.6293 47.5122 39.8693L49.9899 40.1992C48.8111 49.0579 41.5251 56.3445 32.6659 57.5232Z" fill="#3F5AF3"/>
<path d="M27.3357 57.5232C18.478 56.3445 11.1919 49.0579 10.0117 40.1992L12.4894 39.8693C13.5231 47.6293 19.9056 54.0108 27.6657 55.0456L27.3357 57.5232Z" fill="#3F5AF3"/>
<path d="M27.1943 48.7469C23.1841 47.7303 19.8066 44.3519 18.7891 40.3417L21.2119 39.7266C21.9977 42.8255 24.709 45.5368 27.8065 46.3217L27.1943 48.7469Z" fill="#3F5AF3"/>
<path d="M21.2114 35.3417L18.7891 34.727C19.8052 30.7183 23.1826 27.3418 27.1928 26.3232L27.808 28.7456C24.7104 29.5328 21.9977 32.2456 21.2114 35.3417Z" fill="#3F5AF3"/>
<path d="M38.7861 35.3417C38.0026 32.2441 35.2899 29.5328 32.1914 28.7456L32.806 26.3232C36.8177 27.3418 40.1937 30.7192 41.2113 34.727L38.7861 35.3417Z" fill="#3F5AF3"/>
<path d="M32.806 48.7469L32.1914 46.3232C35.2899 45.5378 38.0012 42.8256 38.7861 39.728L41.2098 40.3431C40.1937 44.3519 36.8162 47.7294 32.806 48.7469Z" fill="#3F5AF3"/>
<path d="M31.2501 30.0345H28.7501C27.3715 30.0345 26.25 28.913 26.25 27.5344V18.7845C26.25 17.4055 27.3715 16.2844 28.7501 16.2844H31.2501C32.6287 16.2844 33.7502 17.4055 33.7502 18.7845V27.5344C33.7502 28.913 32.6287 30.0345 31.2501 30.0345ZM28.7501 18.7845V27.5344H31.2525L31.2501 18.7845H28.7501Z" fill="#3F5AF3"/>
<path d="M31.2501 58.7844H28.7501C27.3715 58.7844 26.25 57.6629 26.25 56.2843V47.5344C26.25 46.1553 27.3715 45.0343 28.7501 45.0343H31.2501C32.6287 45.0343 33.7502 46.1553 33.7502 47.5344V56.2843C33.7502 57.6629 32.6287 58.7844 31.2501 58.7844ZM28.7501 47.5344V56.2843H31.2525L31.2501 47.5344H28.7501Z" fill="#3F5AF3"/>
<path d="M20 41.2845H11.2501C9.87152 41.2845 8.75 40.163 8.75 38.7844V36.2844C8.75 34.9053 9.87152 33.7843 11.2501 33.7843H20C21.3786 33.7843 22.5001 34.9053 22.5001 36.2844V38.7844C22.5001 40.163 21.3786 41.2845 20 41.2845ZM20 36.2829L11.2501 36.2844V38.7844H20V36.2829Z" fill="#3F5AF3"/>
<path d="M48.75 41.2845H40.0001C38.6215 41.2845 37.5 40.163 37.5 38.7844V36.2844C37.5 34.9053 38.6215 33.7843 40.0001 33.7843H48.75C50.129 33.7843 51.2501 34.9053 51.2501 36.2844V38.7844C51.2501 40.163 50.129 41.2845 48.75 41.2845ZM48.75 36.2829L40.0001 36.2844V38.7844H48.75V36.2829Z" fill="#3F5AF3"/>
<path d="M48.7499 25.0344C48.059 25.0344 47.5001 24.4745 47.5001 23.7841V21.2845C47.5001 20.5955 46.9398 20.0342 46.2498 20.0342H43.7498C43.0589 20.0342 42.5 19.4744 42.5 18.7844C42.5 18.0945 43.0589 17.5342 43.7498 17.5342H46.2498C48.3174 17.5342 50.0002 19.2169 50.0002 21.2845V23.7841C50.0002 24.4745 49.4413 25.0344 48.7499 25.0344Z" fill="#3F5AF3"/>
<path d="M16.2499 57.5341H13.7498C11.6823 57.5341 10 55.8518 10 53.7843V51.2842C10 50.5933 10.5598 50.0344 11.2498 50.0344C11.9398 50.0344 12.4996 50.5933 12.4996 51.2842V53.7843C12.4996 54.4743 13.0608 55.0341 13.7498 55.0341H16.2499C16.9399 55.0341 17.4997 55.5929 17.4997 56.2843C17.4997 56.9757 16.9399 57.5341 16.2499 57.5341Z" fill="#3F5AF3"/>
<path d="M11.2498 25.0344C10.5598 25.0344 10 24.4745 10 23.7841V21.2845C10 19.2169 11.6823 17.5342 13.7498 17.5342H16.2499C16.9399 17.5342 17.4997 18.0945 17.4997 18.7844C17.4997 19.4744 16.9399 20.0342 16.2499 20.0342H13.7498C13.0608 20.0342 12.4996 20.5955 12.4996 21.2845V23.7841C12.4996 24.4745 11.9398 25.0344 11.2498 25.0344Z" fill="#3F5AF3"/>
<path d="M46.2498 57.5341H43.7498C43.0589 57.5341 42.5 56.9757 42.5 56.2843C42.5 55.5929 43.0589 55.0341 43.7498 55.0341H46.2498C46.9398 55.0341 47.5001 54.4743 47.5001 53.7843V51.2842C47.5001 50.5933 48.059 50.0344 48.7499 50.0344C49.4413 50.0344 50.0002 50.5933 50.0002 51.2842V53.7843C50.0002 55.8518 48.3174 57.5341 46.2498 57.5341Z" fill="#3F5AF3"/>
<path d="M5 6.28394H7.50006V8.78399H5V6.28394Z" fill="#02050A"/>
<path d="M10 6.28394H12.4996V8.78399H10V6.28394Z" fill="#02050A"/>
<path d="M15 6.28406H17.5001V8.78411H15V6.28406Z" fill="#02050A"/>
<path d="M56.2501 57.534H52.4998V55.034H56.2501C56.9401 55.034 57.4999 54.4742 57.4999 53.7842V13.7842H1.24979C0.559807 13.7842 0 13.2244 0 12.5344V5.03427C0 2.96671 1.68228 1.28442 3.74985 1.28442H56.2501C58.3177 1.28442 59.9999 2.96671 59.9999 5.03427V8.78412H57.4999V5.03427C57.4999 4.34524 56.9401 3.784 56.2501 3.784H3.74985C3.06129 3.784 2.50006 4.34524 2.50006 5.03427V11.2842H58.7502C59.4411 11.2842 59.9999 11.844 59.9999 12.5344V53.7842C59.9999 55.8518 58.3177 57.534 56.2501 57.534Z" fill="#02050A"/>
<path d="M7.50017 57.5341H3.74985C1.68228 57.5341 0 55.8518 0 53.7842V16.2843H2.50006V53.7842C2.50006 54.4742 3.06129 55.034 3.74985 55.034H7.50017V57.5341Z" fill="#02050A"/>
</g>
<defs>
<clipPath id="clip0_435_7171">
<rect width="60" height="60" fill="white"/>
</clipPath>
</defs>
</svg>
