<svg width="212" height="213" viewBox="0 0 212 213" fill="none" xmlns="http://www.w3.org/2000/svg">
<ellipse cx="105.104" cy="106.328" rx="74.3427" ry="75.5" fill="#F3F6F8"/>
<path d="M151.87 65.0689C157.66 59.8739 158.218 50.8448 152.056 46.1046C142.119 38.4592 130.379 33.3606 117.861 31.3684C100.685 28.6348 83.0936 31.9162 68.0498 40.6599C53.0059 49.4036 41.4283 63.0755 35.2669 79.3729C30.7783 91.2457 29.3639 103.984 31.0478 116.419C32.0926 124.135 40.2136 128.14 47.6009 125.679C54.982 123.22 58.7471 115.182 58.5549 107.404C58.4039 101.297 59.4275 95.173 61.6185 89.3776C65.4844 79.152 72.7486 70.5738 82.1876 65.0877C91.6267 59.6016 102.664 57.5428 113.441 59.2579C119.531 60.2271 125.327 62.3682 130.531 65.5173C137.198 69.5526 146.065 70.277 151.87 65.0689Z" fill="#FFDF6E"/>
<path d="M68.7082 57.1592C63.9932 50.9557 55.0268 49.686 49.8145 55.4819C44.8993 60.9475 40.7875 67.12 37.6268 73.8165C32.4486 84.7877 29.9751 96.8446 30.4143 108.973C30.8535 121.102 34.1926 132.947 40.1507 143.513C43.7889 149.965 48.3387 155.825 53.6392 160.921C59.2532 166.318 68.1029 164.396 72.3579 157.865C76.6107 151.337 74.5586 142.688 69.5746 136.707C67.7399 134.506 66.1017 132.135 64.6841 129.621C60.9458 122.991 58.8507 115.559 58.5752 107.949C58.2996 100.339 59.8516 92.7743 63.1006 85.8906C64.3298 83.2861 65.7884 80.8079 67.4543 78.4834C71.9958 72.1463 73.4233 63.3627 68.7082 57.1592Z" fill="#FFDF6E"/>
<path d="M49.0623 129.64C41.8634 132.6 38.3166 140.939 42.5451 147.472C46.546 153.653 51.4384 159.237 57.0839 164.034C66.321 171.884 77.3039 177.395 89.1089 180.105C100.914 182.816 113.196 182.646 124.922 179.61C132.08 177.756 138.903 174.868 145.184 171.056C151.844 167.013 152.286 157.958 147.095 152.156C141.897 146.346 133.005 146.103 125.929 149.385C123.344 150.583 120.648 151.55 117.872 152.269C110.515 154.174 102.809 154.28 95.4021 152.58C87.9953 150.879 81.1042 147.421 75.3085 142.496C73.1084 140.627 71.0906 138.567 69.2759 136.345C64.3541 130.318 56.2611 126.679 49.0623 129.64Z" fill="#FFDF6E"/>
<ellipse cx="106.998" cy="108.224" rx="49.8944" ry="50" fill="white"/>
</svg>
