<svg width="197" height="42" viewBox="0 0 197 42" fill="none" xmlns="http://www.w3.org/2000/svg">
<g clip-path="url(#clip0_455_525)">
<path d="M27.4117 21.9119C26.1911 23.1326 24.2129 23.1326 22.9956 21.9119C21.7749 20.6913 21.7749 18.7131 22.9956 17.4958C24.2162 16.2785 26.1944 16.2751 27.4117 17.4958C28.6323 18.7164 28.6323 20.6946 27.4117 21.9119Z" fill="#3F5AF3"/>
<path d="M24.5809 21.0024H11.0215V18.4453H24.5809C24.9216 18.4453 25.2458 18.5809 25.4839 18.8191C25.9834 19.3186 25.9834 20.1291 25.4839 20.6286C25.2458 20.8701 24.9183 21.0024 24.5809 21.0024Z" fill="#3F5AF3"/>
<path d="M31.071 24.5914C29.3872 26.682 26.8764 27.5884 24.4749 27.3106C23.8463 27.2411 23.2244 27.0856 22.6257 26.8541C20.7931 26.1362 18.7091 26.606 17.3164 27.9986C18.4676 29.1498 19.804 30.0032 21.2364 30.5491C25.5301 32.2097 30.6376 31.1511 33.8993 27.3668C37.4653 23.2285 37.5281 16.993 34.0382 12.7952C30.5284 8.5742 24.7627 7.60166 20.2175 9.9007C19.1722 10.4267 18.193 11.128 17.3197 12.0013C18.7091 13.3906 20.7931 13.867 22.6224 13.1491C25.5069 12.0145 28.9638 12.772 31.0875 15.425C33.2112 18.078 33.2079 21.945 31.0743 24.5914H31.071Z" fill="#3F5AF3"/>
<path d="M33.9077 12.6396C30.646 8.85194 25.5418 7.79339 21.2414 9.45399L14.7843 2.99683C14.4832 3.17876 14.1855 3.37393 13.8944 3.57903L13.8646 3.59888C12.343 4.66074 12.1511 6.83738 13.4644 8.14734L17.3182 12.0011C18.7075 13.3905 20.7915 13.8668 22.6208 13.149C25.5054 12.0144 28.9622 12.7719 31.086 15.4249C33.0608 17.8926 33.0542 22.1301 31.0727 24.5913C29.389 26.6819 26.8782 27.5883 24.4766 27.3104C23.8481 27.241 23.2262 27.0855 22.6275 26.8539C20.7948 26.1361 18.7108 26.6058 17.3215 27.9985L13.5041 31.8159C12.1776 33.1424 12.3628 35.3554 13.9043 36.4272C14.1954 36.629 14.4865 36.8208 14.7843 37.0061L21.2414 30.5489C25.5352 32.2095 30.6427 31.151 33.9077 27.3667C37.5233 23.1722 37.5233 16.8374 33.911 12.6396H33.9077Z" fill="#3F5AF3"/>
<g style="mix-blend-mode:multiply">
<path d="M33.9077 12.6396C30.646 8.85194 25.5418 7.79339 21.2414 9.45399L14.7843 2.99683C14.4832 3.17876 14.1855 3.37393 13.8944 3.57903L13.8646 3.59888C12.343 4.66074 12.1511 6.83738 13.4644 8.14734L17.3182 12.0011C18.7075 13.3905 20.7915 13.8668 22.6208 13.149C25.5054 12.0144 28.9622 12.7719 31.086 15.4249C33.0608 17.8926 33.0542 22.1301 31.0727 24.5913C29.389 26.6819 26.8782 27.5883 24.4766 27.3104C23.8481 27.241 23.2262 27.0855 22.6275 26.8539C20.7948 26.1361 18.7108 26.6058 17.3215 27.9985L13.5041 31.8159C12.1776 33.1424 12.3628 35.3554 13.9043 36.4272C14.1954 36.629 14.4865 36.8208 14.7843 37.0061L21.2414 30.5489C25.5352 32.2095 30.6427 31.151 33.9077 27.3667C37.5233 23.1722 37.5233 16.8374 33.911 12.6396H33.9077Z" fill="#3F5AF3"/>
</g>
<path d="M40.2469 6.68841C33.588 -0.757835 22.8007 -1.98509 14.7821 2.99671C14.4811 3.17865 14.1834 3.37382 13.8923 3.57892C13.8824 3.58553 13.8724 3.59215 13.8625 3.59876C12.3375 4.66393 12.1821 6.86704 13.4953 8.18361L14.7689 9.45718C15.629 8.59711 16.5717 7.85943 17.5674 7.25738C17.8751 7.06883 18.1893 6.89351 18.5135 6.73141C24.3885 3.71124 31.8612 4.86241 36.5354 10.1816C41.4345 15.7589 41.4312 24.2604 36.5221 29.8343C31.848 35.1436 24.3852 36.2915 18.5069 33.2746C17.1573 32.5832 15.8969 31.6735 14.7656 30.5422L13.492 31.8158C12.1655 33.1423 12.3508 35.3553 13.8923 36.4271C14.1834 36.6289 14.4745 36.8207 14.7722 37.006C22.804 41.9944 33.6111 40.7506 40.2634 33.2845C46.972 25.7556 46.9621 14.2074 40.2403 6.69172L40.2469 6.68841Z" fill="#3F5AF3"/>
<path d="M15.9142 19.6989H6.89003L1.70312 13.3311H10.7273L15.9142 19.6989Z" fill="#3F5AF3"/>
<path d="M15.9142 19.6987H6.89003L1.70312 26.0699H10.7273L15.9142 19.6987Z" fill="#3F5AF3"/>
</g>
<path d="M57.6944 34V6.41454H68.5778C70.661 6.41454 72.439 6.7872 73.9117 7.53251C75.3933 8.26884 76.5203 9.31497 77.2925 10.6709C78.0737 12.0178 78.4643 13.6027 78.4643 15.4256C78.4643 17.2575 78.0692 18.8334 77.279 20.1534C76.4888 21.4644 75.3439 22.4701 73.8443 23.1706C72.3537 23.871 70.5488 24.2212 68.4296 24.2212H61.1426V19.5338H67.4867C68.6002 19.5338 69.5251 19.3811 70.2614 19.0758C70.9978 18.7705 71.5455 18.3126 71.9047 17.702C72.2729 17.0913 72.457 16.3326 72.457 15.4256C72.457 14.5097 72.2729 13.7374 71.9047 13.1089C71.5455 12.4803 70.9933 12.0044 70.248 11.6811C69.5116 11.3489 68.5823 11.1827 67.4598 11.1827H63.5267V34H57.6944ZM72.5917 21.4465L79.4476 34H73.0092L66.3014 21.4465H72.5917ZM88.3779 34.3906C87.0579 34.3906 85.8815 34.1616 84.8489 33.7037C83.8162 33.2367 82.9991 32.5498 82.3974 31.6428C81.8048 30.7269 81.5084 29.5865 81.5084 28.2216C81.5084 27.0722 81.7195 26.1069 82.1415 25.3257C82.5636 24.5444 83.1383 23.9159 83.8656 23.4399C84.593 22.964 85.4191 22.6048 86.344 22.3624C87.2779 22.1199 88.2566 21.9493 89.2803 21.8505C90.4836 21.7248 91.4534 21.6081 92.1897 21.5003C92.9261 21.3836 93.4603 21.213 93.7926 20.9885C94.1248 20.764 94.291 20.4318 94.291 19.9918V19.9109C94.291 19.0579 94.0216 18.3979 93.4828 17.9309C92.953 17.464 92.1987 17.2305 91.2199 17.2305C90.1873 17.2305 89.3656 17.4595 88.755 17.9175C88.1444 18.3664 87.7403 18.9322 87.5428 19.6146L82.2358 19.1836C82.5052 17.9264 83.035 16.8399 83.8252 15.924C84.6154 14.9991 85.6346 14.2897 86.8828 13.7958C88.1399 13.2929 89.5946 13.0415 91.2469 13.0415C92.3963 13.0415 93.4963 13.1762 94.5469 13.4456C95.6065 13.715 96.5449 14.1325 97.362 14.6983C98.1881 15.264 98.8392 15.9913 99.3151 16.8803C99.791 17.7603 100.029 18.8154 100.029 20.0456V34H94.5873V31.131H94.4257C94.0934 31.7775 93.6489 32.3477 93.0922 32.8416C92.5354 33.3265 91.8665 33.7082 91.0852 33.9865C90.304 34.2559 89.4015 34.3906 88.3779 34.3906ZM90.0211 30.4306C90.8652 30.4306 91.6105 30.2645 92.2571 29.9322C92.9036 29.591 93.411 29.133 93.7791 28.5583C94.1473 27.9836 94.3314 27.3326 94.3314 26.6053V24.4097C94.1518 24.5265 93.9048 24.6342 93.5906 24.733C93.2852 24.8228 92.9395 24.9081 92.5534 24.9889C92.1673 25.0608 91.7812 25.1281 91.395 25.191C91.0089 25.2449 90.6587 25.2942 90.3444 25.3391C89.6709 25.4379 89.0828 25.5951 88.5799 25.8106C88.0771 26.0261 87.6864 26.3179 87.4081 26.6861C87.1297 27.0453 86.9905 27.4943 86.9905 28.033C86.9905 28.8143 87.2734 29.4114 87.8391 29.8245C88.4138 30.2286 89.1411 30.4306 90.0211 30.4306ZM110.219 22.0391V34H104.481V13.3109H109.949V16.9611H110.192C110.65 15.7579 111.417 14.806 112.495 14.1056C113.572 13.3962 114.879 13.0415 116.415 13.0415C117.851 13.0415 119.104 13.3558 120.173 13.9844C121.241 14.613 122.072 15.5109 122.664 16.6783C123.257 17.8366 123.553 19.2195 123.553 20.8269V34H117.815V21.8505C117.824 20.5844 117.501 19.5967 116.846 18.8873C116.19 18.1689 115.288 17.8097 114.138 17.8097C113.366 17.8097 112.684 17.9758 112.091 18.3081C111.507 18.6403 111.049 19.1252 110.717 19.7628C110.394 20.3914 110.228 21.1501 110.219 22.0391ZM133.275 28.0465L133.288 21.1636H134.124L140.75 13.3109H147.337L138.434 23.7093H137.073L133.275 28.0465ZM128.076 34V6.41454H133.814V34H128.076ZM141.006 34L134.918 24.9889L138.744 20.9346L147.728 34H141.006ZM150.152 34V13.3109H155.89V34H150.152ZM153.035 10.644C152.182 10.644 151.45 10.3611 150.839 9.79538C150.237 9.22068 149.937 8.53374 149.937 7.73455C149.937 6.94434 150.237 6.26638 150.839 5.70066C151.45 5.12597 152.182 4.83862 153.035 4.83862C153.888 4.83862 154.615 5.12597 155.217 5.70066C155.827 6.26638 156.133 6.94434 156.133 7.73455C156.133 8.53374 155.827 9.22068 155.217 9.79538C154.615 10.3611 153.888 10.644 153.035 10.644ZM171.612 13.3109V17.6211H158.843V13.3109H171.612ZM161.766 34V11.8158C161.766 10.3162 162.058 9.07252 162.642 8.08476C163.234 7.097 164.043 6.35618 165.066 5.8623C166.09 5.36842 167.253 5.12148 168.555 5.12148C169.435 5.12148 170.239 5.18882 170.966 5.32352C171.702 5.45821 172.25 5.57944 172.609 5.68719L171.585 9.99742C171.361 9.92558 171.083 9.85824 170.75 9.79538C170.427 9.73252 170.095 9.70109 169.754 9.70109C168.91 9.70109 168.321 9.89865 167.989 10.2937C167.657 10.6799 167.491 11.2231 167.491 11.9236V34H161.766ZM178.66 41.7584C177.933 41.7584 177.25 41.7 176.613 41.5833C175.984 41.4756 175.464 41.3364 175.05 41.1658L176.344 36.8825C177.017 37.089 177.623 37.2012 178.162 37.2192C178.71 37.2372 179.181 37.1114 179.576 36.8421C179.98 36.5727 180.308 36.1147 180.559 35.4682L180.896 34.5927L173.475 13.3109H179.509L183.792 28.5045H184.008L188.331 13.3109H194.406L186.365 36.2359C185.979 37.3494 185.453 38.3192 184.789 39.1453C184.133 39.9804 183.303 40.6225 182.297 41.0715C181.291 41.5294 180.079 41.7584 178.66 41.7584Z" fill="#160932"/>
<defs>
<clipPath id="clip0_455_525">
<rect width="43.5925" height="40" fill="white" transform="translate(1.70312)"/>
</clipPath>
</defs>
</svg>
